<?xml version="1.0" encoding="UTF-8" standalone="no"?>
<!DOCTYPE svg PUBLIC "-//W3C//DTD SVG 1.1//EN"
 "http://www.w3.org/Graphics/SVG/1.1/DTD/svg11.dtd">
<!-- Generated by graphviz version 10.0.1 (20240210.2158)
 -->
<!-- Title: DockerComposeDemo Pages: 1 -->
<svg width="1057pt" height="280pt"
 viewBox="0.00 0.00 1056.75 280.00" xmlns="http://www.w3.org/2000/svg" xmlns:xlink="http://www.w3.org/1999/xlink">
<g id="graph0" class="graph" transform="scale(1 1) rotate(0) translate(4 276)">
<title>DockerComposeDemo</title>
<polygon fill="white" stroke="none" points="-4,4 -4,-276 1052.75,-276 1052.75,4 -4,4"/>
<text text-anchor="middle" x="524.38" y="-249" font-family="Helvetica,sans-Serif" font-size="20.00">Container Dependencies for Demo</text>
<!-- dbssvc -->
<g id="node1" class="node">
<title>dbssvc</title>
<g id="a_node1"><a xlink:href="../demo/containers/dbsdata/Dockerfile" xlink:title="&lt;TABLE&gt;" target="_blank">
<polygon fill="lightblue" stroke="none" points="818.75,-145 818.75,-168 1039.75,-168 1039.75,-145 818.75,-145"/>
<text text-anchor="start" x="906" y="-151.7" font-family="Helvetica,sans-Serif" font-weight="bold" font-size="14.00">dbssvc</text>
<text text-anchor="start" x="822.75" y="-131.5" font-family="Helvetica,sans-Serif" font-size="10.00">Dockerfile: ./demo/containers/dbsdata/Dockerfile</text>
<polygon fill="none" stroke="black" points="817.75,-124.75 817.75,-169 1040.75,-169 1040.75,-124.75 817.75,-124.75"/>
</a>
</g>
</g>
<!-- dbstore -->
<g id="node2" class="node">
<title>dbstore</title>
<polygon fill="lightblue" stroke="none" points="523.25,-145 523.25,-168 763.75,-168 763.75,-145 523.25,-145"/>
<text text-anchor="start" x="618.75" y="-151.7" font-family="Helvetica,sans-Serif" font-weight="bold" font-size="14.00">dbstore</text>
<text text-anchor="start" x="527.25" y="-131.5" font-family="Helvetica,sans-Serif" font-size="10.00">Image: minio/minio:RELEASE.2024&#45;06&#45;11T03&#45;13&#45;30Z</text>
<polygon fill="none" stroke="black" points="522.25,-124.75 522.25,-169 764.75,-169 764.75,-124.75 522.25,-124.75"/>
</g>
<!-- dbstore&#45;&gt;dbssvc -->
<g id="edge1" class="edge">
<title>dbstore&#45;&gt;dbssvc</title>
<path fill="none" stroke="black" d="M772.68,-146.88C783.02,-146.88 793.45,-146.88 803.76,-146.88"/>
<polygon fill="black" stroke="black" points="803.65,-148.63 808.65,-146.88 803.65,-145.13 803.65,-148.63"/>
</g>
<!-- client_ghmrva -->
<g id="node3" class="node">
<title>client_ghmrva</title>
<g id="a_node3"><a xlink:href="../client/containers/ghmrva/Dockerfile" xlink:title="&lt;TABLE&gt;" target="_blank">
<polygon fill="lightblue" stroke="none" points="9,-123 9,-146 227,-146 227,-123 9,-123"/>
<text text-anchor="start" x="73.38" y="-129.7" font-family="Helvetica,sans-Serif" font-weight="bold" font-size="14.00">client&#45;ghmrva</text>
<text text-anchor="start" x="13" y="-109.5" font-family="Helvetica,sans-Serif" font-size="10.00">Dockerfile: ./client/containers/ghmrva/Dockerfile</text>
<polygon fill="none" stroke="black" points="8,-78.75 8,-147 228,-147 228,-78.75 8,-78.75"/>
</a>
</g>
</g>
<!-- server -->
<g id="node8" class="node">
<title>server</title>
<g id="a_node8"><a xlink:href="../cmd/server/Dockerfile" xlink:title="&lt;TABLE&gt;" target="_blank">
<polygon fill="lightblue" stroke="none" points="308,-139.75 308,-162.75 468.25,-162.75 468.25,-139.75 308,-139.75"/>
<text text-anchor="start" x="367.88" y="-146.45" font-family="Helvetica,sans-Serif" font-weight="bold" font-size="14.00">server</text>
<text text-anchor="start" x="312" y="-126.25" font-family="Helvetica,sans-Serif" font-size="10.00">Dockerfile: ./cmd/server/Dockerfile</text>
<text text-anchor="start" x="312" y="-107" font-family="Helvetica,sans-Serif" font-size="10.00">c.MRVARequest</text>
<text text-anchor="start" x="312" y="-87.75" font-family="Helvetica,sans-Serif" font-size="10.00">c.MRVAStatus</text>
<text text-anchor="start" x="312" y="-68.5" font-family="Helvetica,sans-Serif" font-size="10.00">c.MRVADownloadArtifact</text>
<text text-anchor="start" x="312" y="-49.25" font-family="Helvetica,sans-Serif" font-size="10.00">c.MRVARequestID</text>
<text text-anchor="start" x="312" y="-30" font-family="Helvetica,sans-Serif" font-size="10.00">c.MRVADownloadQLDB</text>
<text text-anchor="start" x="312" y="-11.75" font-family="Helvetica,sans-Serif" font-style="italic" font-size="10.00">Not Found</text>
<polygon fill="none" stroke="black" points="307,-4 307,-163.75 469.25,-163.75 469.25,-4 307,-4"/>
</a>
</g>
</g>
<!-- client_ghmrva&#45;&gt;server -->
<g id="edge8" class="edge">
<title>client_ghmrva:slot1&#45;&gt;server:c_MRVARequest</title>
<path fill="none" stroke="black" stroke-width="2" stroke-dasharray="5,2" d="M228,-99.88C243.53,-99.88 278.87,-108.3 299.36,-110.4"/>
<polygon fill="black" stroke="black" stroke-width="2" points="299.01,-112.13 304.1,-110.69 299.22,-108.64 299.01,-112.13"/>
<text text-anchor="middle" x="267.5" y="-109.03" font-family="Times,serif" font-size="8.00">message</text>
</g>
<!-- client_ghmrva&#45;&gt;server -->
<g id="edge9" class="edge">
<title>client_ghmrva:slot2&#45;&gt;server:c_MRVAStatus</title>
<path fill="none" stroke="black" stroke-width="2" stroke-dasharray="5,2" d="M228,-91.88C260.42,-91.88 270.42,-91.88 299.34,-91.88"/>
<polygon fill="black" stroke="black" stroke-width="2" points="299.1,-93.63 304.1,-91.88 299.1,-90.13 299.1,-93.63"/>
<text text-anchor="middle" x="267.5" y="-94.03" font-family="Times,serif" font-size="8.00">message</text>
</g>
<!-- client_ghmrva&#45;&gt;server -->
<g id="edge10" class="edge">
<title>client_ghmrva:slot3&#45;&gt;server:c_MRVADownloadArtifact</title>
<path fill="none" stroke="black" stroke-width="2" stroke-dasharray="5,2" d="M228,-83.88C239.83,-83.88 242.33,-80.1 254,-78.12 274.69,-74.63 281.73,-72.43 299.45,-71.97"/>
<polygon fill="black" stroke="black" stroke-width="2" points="299.12,-73.72 304.1,-71.91 299.08,-70.22 299.12,-73.72"/>
<text text-anchor="middle" x="267.5" y="-80.03" font-family="Times,serif" font-size="8.00">message</text>
</g>
<!-- code_server -->
<g id="node4" class="node">
<title>code_server</title>
<g id="a_node4"><a xlink:href="../client/containers/vscode/Dockerfile" xlink:title="&lt;TABLE&gt;" target="_blank">
<polygon fill="lightblue" stroke="none" points="9.38,-193 9.38,-216 226.62,-216 226.62,-193 9.38,-193"/>
<text text-anchor="start" x="79.75" y="-199.7" font-family="Helvetica,sans-Serif" font-weight="bold" font-size="14.00">code&#45;server</text>
<text text-anchor="start" x="13.38" y="-179.5" font-family="Helvetica,sans-Serif" font-size="10.00">Dockerfile: ./client/containers/vscode/Dockerfile</text>
<polygon fill="none" stroke="black" points="8.38,-172.75 8.38,-217 227.62,-217 227.62,-172.75 8.38,-172.75"/>
</a>
</g>
</g>
<!-- rabbitmq -->
<g id="node5" class="node">
<title>rabbitmq</title>
<polygon fill="lightblue" stroke="none" points="570.5,-215 570.5,-238 716.5,-238 716.5,-215 570.5,-215"/>
<text text-anchor="start" x="614.25" y="-221.7" font-family="Helvetica,sans-Serif" font-weight="bold" font-size="14.00">rabbitmq</text>
<text text-anchor="start" x="574.5" y="-201.5" font-family="Helvetica,sans-Serif" font-size="10.00">Image: rabbitmq:3&#45;management</text>
<polygon fill="none" stroke="black" points="569.5,-194.75 569.5,-239 717.5,-239 717.5,-194.75 569.5,-194.75"/>
</g>
<!-- artifactstore -->
<g id="node6" class="node">
<title>artifactstore</title>
<polygon fill="lightblue" stroke="none" points="523.25,-75 523.25,-98 763.75,-98 763.75,-75 523.25,-75"/>
<text text-anchor="start" x="604.5" y="-81.7" font-family="Helvetica,sans-Serif" font-weight="bold" font-size="14.00">artifactstore</text>
<text text-anchor="start" x="527.25" y="-61.5" font-family="Helvetica,sans-Serif" font-size="10.00">Image: minio/minio:RELEASE.2024&#45;06&#45;11T03&#45;13&#45;30Z</text>
<polygon fill="none" stroke="black" points="522.25,-54.75 522.25,-99 764.75,-99 764.75,-54.75 522.25,-54.75"/>
</g>
<!-- agent -->
<g id="node7" class="node">
<title>agent</title>
<g id="a_node7"><a xlink:href="../cmd/agent/Dockerfile" xlink:title="&lt;TABLE&gt;" target="_blank">
<polygon fill="lightblue" stroke="none" points="309.5,-210 309.5,-233 466.75,-233 466.75,-210 309.5,-210"/>
<text text-anchor="start" x="370.12" y="-216.7" font-family="Helvetica,sans-Serif" font-weight="bold" font-size="14.00">agent</text>
<text text-anchor="start" x="313.5" y="-196.5" font-family="Helvetica,sans-Serif" font-size="10.00">Dockerfile: ./cmd/agent/Dockerfile</text>
<polygon fill="none" stroke="black" points="308.5,-189.75 308.5,-234 467.75,-234 467.75,-189.75 308.5,-189.75"/>
</a>
</g>
</g>
<!-- agent&#45;&gt;dbstore -->
<g id="edge5" class="edge">
<title>agent&#45;&gt;dbstore</title>
<path fill="none" stroke="black" d="M475.61,-189.69C494.58,-184.82 514.89,-179.61 534.58,-174.56"/>
<polygon fill="black" stroke="black" points="534.8,-176.31 539.21,-173.37 533.93,-172.92 534.8,-176.31"/>
</g>
<!-- agent&#45;&gt;rabbitmq -->
<g id="edge7" class="edge">
<title>agent&#45;&gt;rabbitmq</title>
<path fill="none" stroke="black" d="M475.61,-213.58C501.25,-214.09 529.34,-214.64 555.04,-215.15"/>
<polygon fill="black" stroke="black" points="554.98,-216.9 560.01,-215.25 555.04,-213.4 554.98,-216.9"/>
</g>
<!-- agent&#45;&gt;artifactstore -->
<g id="edge6" class="edge">
<title>agent&#45;&gt;artifactstore</title>
<path fill="none" stroke="black" d="M465.19,-185.78C469.46,-183.08 473.52,-180.12 477.25,-176.88 502.34,-155.06 487.99,-132.25 514.25,-111.88 516.87,-109.84 519.6,-107.93 522.42,-106.12"/>
<polygon fill="black" stroke="black" points="522.93,-107.86 526.3,-103.78 521.11,-104.87 522.93,-107.86"/>
</g>
<!-- server&#45;&gt;dbstore -->
<g id="edge2" class="edge">
<title>server&#45;&gt;dbstore</title>
<path fill="none" stroke="black" d="M477.03,-105.73C494.63,-110.11 513.32,-114.76 531.58,-119.29"/>
<polygon fill="black" stroke="black" points="531,-120.96 536.28,-120.46 531.85,-117.56 531,-120.96"/>
</g>
<!-- server&#45;&gt;rabbitmq -->
<g id="edge3" class="edge">
<title>server&#45;&gt;rabbitmq</title>
<path fill="none" stroke="black" d="M477.14,-159.61C489.14,-167.87 501.67,-175.56 514.25,-181.88 527.15,-188.36 541.41,-193.76 555.59,-198.22"/>
<polygon fill="black" stroke="black" points="554.91,-199.85 560.21,-199.64 555.94,-196.5 554.91,-199.85"/>
</g>
<!-- server&#45;&gt;artifactstore -->
<g id="edge4" class="edge">
<title>server&#45;&gt;artifactstore</title>
<path fill="none" stroke="black" d="M477.03,-81.45C487.19,-81.17 497.71,-80.88 508.31,-80.58"/>
<polygon fill="black" stroke="black" points="508.09,-82.34 513.04,-80.45 507.99,-78.84 508.09,-82.34"/>
</g>
</g>
</svg>
